<svg xmlns="http://www.w3.org/2000/svg" viewBox="0 0 16 16"><path d="M 0 3 L 0 3.5 L 0 14 L 16 14 L 16 3 L 0 3 z M 1 4 L 15 4 L 15 7 L 1 7 L 1 4 z M 2 5 L 2 6 L 4 6 L 4 5 L 2 5 z M 5 5 L 5 6 L 7 6 L 7 5 L 5 5 z M 11.5 5 A 0.5 0.5 0 0 0 11 5.5 A 0.5 0.5 0 0 0 11.5 6 A 0.5 0.5 0 0 0 12 5.5 A 0.5 0.5 0 0 0 11.5 5 z M 13.5 5 A 0.5 0.5 0 0 0 13 5.5 A 0.5 0.5 0 0 0 13.5 6 A 0.5 0.5 0 0 0 14 5.5 A 0.5 0.5 0 0 0 13.5 5 z M 1 8 L 15 8 L 15 12.292969 L 12.021484 9.3144531 L 8.5996094 12.341797 L 5.015625 9.3632812 L 1 12.375 L 1 8 z M 7 9 L 7 10 L 8 10 L 8 9 L 7 9 z M 9 9 L 9 10 L 10 10 L 10 9 L 9 9 z M 4.984375 10.638672 L 7.8242188 13 L 1.8339844 13 L 4.984375 10.638672 z M 11.978516 10.6875 L 14.292969 13 L 9.3652344 13 L 11.978516 10.6875 z " color="#000" enable-background="accumulate" font-family="sans-serif" font-weight="400" overflow="visible" style="line-height:normal;text-indent:0;text-align:start;text-decoration-line:none;text-decoration-style:solid;text-decoration-color:#000;text-transform:none;block-progression:tb;white-space:normal;isolation:auto;mix-blend-mode:normal;solid-color:#000;solid-opacity:1" fill="#d25d5f" class="color000000 svgShape"></path></svg>