<svg xmlns="http://www.w3.org/2000/svg" width="32" height="32" id="paint"><path fill-rule="evenodd" d="M4.834 1A1.842 1.842 0 0 0 3 2.834v5.334A1.84 1.84 0 0 0 4.834 10h17.332A1.84 1.84 0 0 0 24 8.168V7h.5c.083 0 .225.059.334.168A.54.54 0 0 1 25 7.5v4a.545.545 0 0 1-.166.334.544.544 0 0 1-.334.166h-11c-.667 0-1.275.318-1.729.771-.453.454-.771 1.062-.771 1.729V19c-1.1 0-2 .9-2 2v8c0 1.1.9 2 2 2h3c1.1 0 2-.9 2-2v-8c0-1.1-.9-2-2-2v-3.5c0-.083.057-.225.166-.334A.544.544 0 0 1 14.5 15h11c.667 0 1.275-.318 1.729-.771.453-.454.771-1.062.771-1.729v-6c0-.667-.318-1.275-.771-1.729C26.775 4.318 26.167 4 25.5 4H24V2.834A1.842 1.842 0 0 0 22.166 1H4.834zm0 1h17.332c.47 0 .834.364.834.834v5.334a.82.82 0 0 1-.834.832H4.834A.82.82 0 0 1 4 8.168V2.834c0-.47.364-.834.834-.834zM24 5h1.5c.333 0 .725.182 1.021.479.297.296.479.688.479 1.021v6c0 .333-.182.725-.479 1.021-.296.297-.688.479-1.021.479h-11c-.417 0-.775.193-1.041.459-.266.266-.459.624-.459 1.041V19h-1v-4.5c0-.333.182-.725.479-1.021.296-.297.688-.479 1.021-.479h11c.416 0 .775-.193 1.041-.459.266-.266.459-.624.459-1.041v-4c0-.417-.193-.775-.459-1.041C25.275 6.193 24.917 6 24.5 6H24V5zM11 20h3c.563 0 1 .437 1 1v8c0 .563-.437 1-1 1h-3c-.563 0-1-.437-1-1v-8c0-.563.437-1 1-1z" color="#000" font-family="sans-serif" font-weight="400" overflow="visible" style="line-height:normal;text-indent:0;text-align:start;text-decoration-line:none;text-decoration-style:solid;text-decoration-color:#000;text-transform:none;block-progression:tb;white-space:normal;isolation:auto;mix-blend-mode:normal;solid-color:#000;solid-opacity:1"></path></svg>