<svg width="38" height="38" viewBox="0 0 38 38" fill="none" xmlns="http://www.w3.org/2000/svg">
<path fill-rule="evenodd" clip-rule="evenodd" d="M3.64258 1.58301L6.2023 32.6842L19.0009 36.4163L31.7995 32.6842L34.3592 1.58301H3.64258ZM10.6821 19.6217H23.4807L22.8408 24.5979L19.0012 25.8419L15.1616 24.5979L14.5217 21.4877H10.6821L11.3221 27.708L19.0012 30.1961L26.6804 27.708L27.9602 15.8895H20.2811L28.6002 12.7794L29.2401 8.42524H9.40226L10.0422 12.1574H20.2811L10.0422 15.2675L10.6821 19.6217Z" fill="#1C1D20"/>
<path d="M19.0012 4.07107H31.7998L29.2401 31.4401L19.0012 34.5502V30.1961L26.6804 27.708L27.9602 15.8895H20.2811L28.6002 12.7794L29.2401 8.42524H19.0012V4.07107Z" fill="#1C1D20"/>
<path d="M19.0012 12.1574V12.5461L20.2811 12.1574H19.0012Z" fill="#1C1D20"/>
<path d="M19.0012 19.6217V25.8419L22.8408 24.5979L23.4807 19.6217H19.0012Z" fill="#1C1D20"/>
</svg>
