<svg width="23" height="22" viewBox="0 0 23 22" fill="none" xmlns="http://www.w3.org/2000/svg">
<path d="M21.7097 10.2475L12.4924 1.03069C11.9619 0.499861 11.1009 0.499861 10.5698 1.03069L8.65575 2.94471L11.0838 5.37273C11.648 5.18207 12.295 5.30998 12.7448 5.75974C13.1967 6.2124 13.3237 6.86494 13.1284 7.43099L15.4684 9.77102C16.0345 9.57599 16.6877 9.70216 17.1399 10.1551C17.7718 10.7867 17.7718 11.8106 17.1399 12.4426C16.5078 13.0748 15.484 13.0748 14.8515 12.4426C14.3762 11.9668 14.2588 11.2688 14.4994 10.6832L12.3172 8.50097L12.317 14.2436C12.4751 14.3218 12.6196 14.4251 12.7448 14.5496C13.3767 15.1812 13.3767 16.2051 12.7448 16.8377C12.1127 17.4696 11.0884 17.4696 10.4572 16.8377C9.82527 16.2051 9.82527 15.1813 10.4572 14.5496C10.6086 14.3981 10.7886 14.2781 10.9867 14.1966V8.40045C10.7883 8.31946 10.6083 8.1994 10.4572 8.04741C9.97841 7.56928 9.86329 6.86676 10.1086 6.27886L7.71515 3.88514L1.39501 10.2049C0.863935 10.7362 0.863935 11.5972 1.39501 12.1281L10.6125 21.3451C11.1431 21.876 12.0039 21.876 12.5352 21.3451L21.7096 12.1709C22.2405 11.6398 22.2405 10.7783 21.7096 10.2475" fill="#1C1D20"/>
</svg>
