<svg width="38" height="38" viewBox="0 0 38 38" fill="none" xmlns="http://www.w3.org/2000/svg">
<g clip-path="url(#clip0_452_4395)">
<path fill-rule="evenodd" clip-rule="evenodd" d="M0 0H38V38H0V0ZM29.049 31.8561C27.2878 31.8561 26.2919 30.9374 25.5265 29.6877L22.6246 31.3735C23.6729 33.4448 25.8154 35.0252 29.1317 35.0252C32.5233 35.0252 35.0488 33.2639 35.0488 30.049C35.0488 27.0669 33.3358 25.7405 30.3018 24.4394L29.4091 24.057C27.8771 23.3935 27.2136 22.9598 27.2136 21.8886C27.2136 21.0218 27.8765 20.3584 28.9224 20.3584C29.9478 20.3584 30.6082 20.7908 31.2205 21.8886L34.0011 20.1032C32.8249 18.0343 31.1927 17.2442 28.9224 17.2442C25.7334 17.2442 23.6929 19.2829 23.6929 21.961C23.6929 24.8683 25.4047 26.2435 27.9814 27.3413L28.8741 27.7243C30.5027 28.4367 31.4738 28.8704 31.4738 30.0948C31.4738 31.1166 30.5286 31.8561 29.049 31.8561ZM15.2104 31.8338C13.9836 31.8338 13.4733 30.9923 12.9123 29.9971L10.0056 31.7568C10.8476 33.5389 12.5034 35.0185 15.3624 35.0185C18.5267 35.0185 20.6945 33.3357 20.6945 29.6382V17.448H17.1237V29.5899C17.1237 31.3747 16.3836 31.8338 15.2104 31.8338Z" fill="#1C1D20"/>
</g>
<defs>
<clipPath id="clip0_452_4395">
<rect width="38" height="38" fill="white"/>
</clipPath>
</defs>
</svg>
