<svg width="18" height="39" viewBox="0 0 18 39" fill="none" xmlns="http://www.w3.org/2000/svg">
<path d="M9.33745 0.994873L10.3515 2.89948C10.5795 3.25095 10.8265 3.56206 11.1174 3.85179C11.9703 4.69405 12.7653 5.59299 13.497 6.54246C15.2152 8.79854 16.3741 11.304 17.2017 14.0137C17.698 15.6689 17.9676 17.3669 17.9878 19.0839C18.0709 24.2171 16.3111 28.6247 12.7631 32.2879C12.186 32.8688 11.5626 33.4017 10.8989 33.8814C10.5474 33.8814 10.3812 33.6119 10.2363 33.3637C9.97251 32.9035 9.79694 32.3981 9.71861 31.8735C9.59393 31.2525 9.512 30.6315 9.55237 29.9903V29.7005C9.52387 29.6388 9.21396 1.14092 9.33745 0.994873V0.994873Z" fill="#1C1D20"/>
<path d="M9.33747 0.931964C9.29591 0.848845 9.25435 0.911778 9.21279 0.95215C9.23297 1.36774 9.08811 1.73822 8.86131 2.09207C8.61196 2.44354 8.28186 2.71308 7.95057 3.00281C6.11008 4.59632 4.66143 6.52111 3.50133 8.67389C1.95769 11.5712 1.16212 14.6763 0.936513 17.9452C0.833208 19.1243 1.30936 23.285 1.68102 24.4855C2.69507 27.6725 4.51657 30.343 6.87596 32.6608C7.45542 33.2189 8.07525 33.7366 8.71645 34.2341C8.90287 34.2341 8.92306 34.0679 8.96581 33.9444C9.04754 33.6802 9.10985 33.4103 9.15223 33.137L9.56782 30.0331L9.33747 0.931964Z" fill="#1C1D20"/>
<path d="M10.3515 35.1424C10.3931 34.6675 10.6211 34.2733 10.8692 33.8802C10.6199 33.7769 10.4346 33.5715 10.2898 33.3423C10.1648 33.1254 10.0614 32.8967 9.98104 32.6596C9.69131 31.7904 9.62956 30.8785 9.54644 29.9903V29.4524C9.44314 29.5355 9.42176 30.2385 9.42176 30.3429C9.36134 31.2817 9.23677 32.2152 9.04891 33.1369C8.98717 33.5098 8.94561 33.8814 8.71644 34.2127C8.71644 34.2543 8.71644 34.2958 8.73662 34.3576C9.10947 35.4547 9.21159 36.5721 9.27452 37.7108V38.1264C9.27452 38.6227 9.25434 38.5182 9.66637 38.6845C9.83261 38.7462 10.0178 38.7676 10.1841 38.8911C10.3088 38.8911 10.3289 38.7878 10.3289 38.7047L10.2672 38.0219V36.1173C10.247 35.7848 10.3088 35.4547 10.3503 35.1436L10.3515 35.1424Z" fill="#1C1D20"/>
</svg>
