<svg width="39" height="38" viewBox="0 0 39 38" fill="none" xmlns="http://www.w3.org/2000/svg">
<path d="M35.2108 29.3554C33.1433 29.3031 31.5409 29.513 30.197 30.09C29.8092 30.2473 29.1889 30.2475 29.1372 30.746C29.344 30.9559 29.3698 31.297 29.5508 31.5854C29.8612 32.11 30.4036 32.8184 30.8947 33.1859C31.4373 33.6055 31.9803 34.0252 32.5487 34.3925C33.5567 35.0222 34.694 35.3894 35.6761 36.0191C36.2449 36.3861 36.8131 36.8587 37.3817 37.2521C37.6661 37.4617 37.8468 37.8031 38.2089 37.9341V37.8556C38.0278 37.6193 37.9761 37.2783 37.7953 37.016C37.5371 36.7536 37.2783 36.5175 37.0199 36.2551C36.2704 35.2321 35.3401 34.34 34.3321 33.6055C33.5052 33.0283 31.6958 32.2414 31.36 31.2706C31.36 31.2706 31.334 31.2445 31.3083 31.2182C31.8768 31.1658 32.5487 30.9559 33.0916 30.7984C33.9703 30.5622 34.7714 30.6148 35.6761 30.3786C36.0895 30.2737 36.5031 30.1425 36.9165 30.0113V29.7753C36.4515 29.3031 36.1155 28.6735 35.6244 28.2275C34.3063 27.0729 32.8588 25.945 31.36 25.0006C30.5587 24.4758 29.5248 24.1347 28.6719 23.6889C28.3621 23.5313 27.845 23.4527 27.6642 23.1903C27.1988 22.6133 26.9403 21.8525 26.6044 21.1704C25.8551 19.7273 25.1312 18.1271 24.485 16.6056C24.0201 15.5824 23.7358 14.5591 23.1671 13.6149C20.5051 9.15497 17.6104 6.45281 13.1652 3.80298C12.2088 3.25215 11.0717 3.01601 9.857 2.72755C9.2111 2.70116 8.56476 2.64884 7.91872 2.62245C7.50515 2.43879 7.09159 1.94043 6.72972 1.70429C5.25684 0.759741 1.45737 -1.28633 0.371916 1.41583C-0.325973 3.12096 1.40583 4.79985 2.00003 5.66584C2.43974 6.26915 3.00809 6.95117 3.31826 7.63335C3.4992 8.07908 3.55074 8.55166 3.73168 9.02378C4.14539 10.1778 4.53281 11.4636 5.07576 12.5393C5.36009 13.0901 5.67011 13.6672 6.03198 14.1657C6.23876 14.4542 6.60048 14.5855 6.67817 15.0576C6.31645 15.5824 6.29046 16.3695 6.08353 17.0253C5.15316 19.9898 5.51517 23.6626 6.83311 25.84C7.24653 26.4957 8.22874 27.939 9.54683 27.3879C10.71 26.9158 10.4515 25.4204 10.7872 24.1087C10.8651 23.7935 10.8134 23.5839 10.9683 23.374V23.4266C11.3302 24.161 11.6919 24.8695 12.0279 25.604C12.8292 26.8894 14.2247 28.2275 15.3877 29.1195C16.0082 29.5915 16.4991 30.4049 17.2746 30.6935V30.6146H17.2227C17.0676 30.3785 16.835 30.2737 16.6284 30.0899C16.1633 29.6179 15.6462 29.0407 15.2844 28.5159C14.1991 27.0466 13.2426 25.4202 12.3898 23.7412C11.9764 22.9281 11.6144 22.036 11.2785 21.2228C11.1232 20.9077 11.1232 20.4357 10.8649 20.2784C10.4772 20.8555 9.9087 21.354 9.62437 22.0623C9.13356 23.1903 9.08172 24.5808 8.90078 26.0235C8.79739 26.0501 8.84894 26.0235 8.79724 26.0763C7.97041 25.8661 7.68609 25.0006 7.37577 24.2659C6.60033 22.4034 6.47109 19.4126 7.14328 17.2614C7.32422 16.7104 8.09965 14.9791 7.78948 14.4543C7.63439 13.9558 7.11729 13.6672 6.83311 13.2738C6.49724 12.7753 6.13522 12.1459 5.90274 11.5947C5.28239 10.1256 4.97222 8.49903 4.30033 7.02989C3.99016 6.34771 3.44765 5.6396 3.00809 5.0099C2.51713 4.30164 1.97433 3.80298 1.58661 2.96353C1.45752 2.67507 1.27644 2.2028 1.48322 1.88795C1.53492 1.67805 1.63816 1.59949 1.84509 1.54701C2.18111 1.25825 3.13748 1.62558 3.4732 1.783C4.42957 2.17626 5.2307 2.54389 6.03198 3.09472C6.3937 3.3571 6.78142 3.85561 7.24653 3.9868H7.78933C8.61646 4.17031 9.54668 4.03927 10.3221 4.27526C11.692 4.72114 12.9324 5.37708 14.0439 6.08549C17.4296 8.26289 20.2206 11.3586 22.1075 15.0576C22.4177 15.6608 22.5468 16.2121 22.8311 16.8415C23.374 18.1271 24.0459 19.4388 24.5884 20.6981C25.1312 21.9309 25.648 23.1903 26.4235 24.2136C26.8112 24.7643 28.3618 25.053 29.0597 25.3417C29.5766 25.5776 30.3779 25.7877 30.843 26.0762C31.7217 26.6268 32.6003 27.2568 33.4275 27.86C33.841 28.1749 35.1331 28.8308 35.2108 29.3554V29.3554Z" fill="#1C1D20"/>
<path d="M8.84877 6.5575C8.4095 6.5575 8.09948 6.61027 7.78931 6.68883V6.74131H7.841C8.04793 7.16111 8.4095 7.44972 8.66783 7.81689C8.87476 8.23654 9.05555 8.65649 9.26248 9.07629C9.28818 9.0499 9.31402 9.02381 9.31402 9.02381C9.67604 8.76129 9.85683 8.34164 9.85683 7.71194C9.70174 7.52843 9.67589 7.34477 9.54665 7.16111C9.39172 6.89858 9.05555 6.76755 8.84877 6.5575V6.5575Z" fill="#00546B"/>
</svg>
