<svg width="38" height="38" viewBox="0 0 38 38" fill="none" xmlns="http://www.w3.org/2000/svg">
<g clip-path="url(#clip0_452_4395)">
<path d="M3.00704 13.5166H8.64261C10.2967 13.5305 11.4953 14.0074 12.2384 14.9465C12.9816 15.8857 13.2268 17.1684 12.9744 18.7947C12.8764 19.5378 12.659 20.2667 12.3226 20.9816C12 21.6966 11.5517 22.3413 10.9767 22.9162C10.2757 23.6451 9.5258 24.1077 8.72672 24.3041C7.92765 24.5005 7.10041 24.5985 6.24539 24.5985H3.722L2.92293 28.5939H0L3.00704 13.5166ZM5.46735 15.9138L4.20565 22.2223C4.28976 22.2362 4.37388 22.2433 4.45799 22.2433C4.55599 22.2433 4.65438 22.2433 4.75238 22.2433C6.09819 22.2572 7.21983 22.1243 8.1169 21.8438C9.01398 21.5494 9.61705 20.5262 9.92533 18.7737C10.1777 17.3017 9.92533 16.4534 9.16832 16.2292C8.42519 16.0051 7.4932 15.8999 6.37156 15.9138C6.20333 15.9277 6.04225 15.9349 5.88791 15.9349C5.74785 15.9349 5.60066 15.9349 5.44632 15.9349L5.46735 15.9138Z" fill="#1C1D20"/>
<path d="M16.3044 9.5H19.2063L18.3862 13.5164H20.9937C22.4237 13.5446 23.489 13.839 24.19 14.3996C24.905 14.9602 25.1153 16.0259 24.8209 17.5959L23.412 24.5983H20.468L21.8138 17.9113C21.9539 17.2102 21.9118 16.7127 21.6877 16.4183C21.4635 16.1239 20.9799 15.9767 20.2367 15.9767L17.9026 15.9557L16.1783 24.5983H13.2764L16.3044 9.5Z" fill="#1C1D20"/>
<path d="M27.9367 13.5166H33.5723C35.2264 13.5305 36.425 14.0074 37.1681 14.9465C37.9113 15.8857 38.1565 17.1684 37.9041 18.7947C37.8061 19.5378 37.5887 20.2667 37.2522 20.9816C36.9297 21.6966 36.4813 22.3413 35.9064 22.9162C35.2054 23.6451 34.4555 24.1077 33.6564 24.3041C32.8573 24.5005 32.0301 24.5985 31.1751 24.5985H28.6517L27.8526 28.5939H24.9297L27.9367 13.5166ZM30.397 15.9138L29.1353 22.2223C29.2194 22.2362 29.3036 22.2433 29.3877 22.2433C29.4857 22.2433 29.5841 22.2433 29.6821 22.2433C31.0279 22.2572 32.1495 22.1243 33.0466 21.8438C33.9437 21.5494 34.5467 20.5262 34.855 18.7737C35.1074 17.3017 34.855 16.4534 34.098 16.2292C33.3549 16.0051 32.4229 15.8999 31.3012 15.9138C31.133 15.9277 30.9719 15.9349 30.8176 15.9349C30.6775 15.9349 30.5303 15.9349 30.376 15.9349L30.397 15.9138Z" fill="#1C1D20"/>
</g>
<defs>
<clipPath id="clip0_452_4395">
<rect width="38" height="38" fill="white"/>
</clipPath>
</defs>
</svg>
