<svg width="38" height="38" viewBox="0 0 38 38" fill="none" xmlns="http://www.w3.org/2000/svg">
<path d="M22.2465 19.003C22.2465 20.7956 20.7933 22.2488 19.0006 22.2488C17.208 22.2488 15.7548 20.7956 15.7548 19.003C15.7548 17.2104 17.208 15.7572 19.0006 15.7572C20.7933 15.7572 22.2465 17.2104 22.2465 19.003Z" fill="#1C1D20"/>
<path fill-rule="evenodd" clip-rule="evenodd" d="M30.012 10.8139C29.9052 11.4804 29.7603 12.1763 29.5783 12.8958C30.2924 13.0979 30.9675 13.3203 31.5982 13.5611C33.2269 14.183 34.5995 14.9428 35.5788 15.8268C36.558 16.7108 37.2087 17.7827 37.2087 19.003C37.2087 20.2232 36.558 21.2952 35.5788 22.1791C34.5995 23.0631 33.2269 23.8229 31.5982 24.4448C30.9675 24.6856 30.2924 24.908 29.5783 25.1102C29.7603 25.8297 29.9052 26.5256 30.012 27.1921C30.2878 28.9136 30.3161 30.4822 30.0402 31.7723C29.7642 33.0623 29.1612 34.1617 28.1045 34.7718C27.0477 35.382 25.7941 35.3544 24.5389 34.9484C23.2837 34.5423 21.9394 33.7335 20.5865 32.6339C20.0626 32.2082 19.5324 31.7347 19.0003 31.2174C18.4682 31.7347 17.938 32.2082 17.4142 32.6339C16.0612 33.7335 14.7169 34.5423 13.4617 34.9484C12.2066 35.3544 10.9529 35.382 9.89616 34.7718C8.83941 34.1617 8.23641 33.0623 7.96049 31.7723C7.68455 30.4822 7.71282 28.9136 7.98863 27.1921C8.09542 26.5256 8.24037 25.8297 8.42235 25.1102C7.70825 24.908 7.03312 24.6856 6.40249 24.4448C4.77375 23.8229 3.40115 23.0631 2.42187 22.1791C1.44267 21.2952 0.791992 20.2232 0.791992 19.003C0.791992 17.7827 1.44267 16.7108 2.42187 15.8268C3.40115 14.9428 4.77375 14.183 6.40249 13.5611C7.03312 13.3203 7.70825 13.0979 8.42235 12.8958C8.24037 12.1763 8.09542 11.4804 7.98863 10.8139C7.71282 9.09238 7.68455 7.52376 7.96049 6.23367C8.23641 4.94368 8.83941 3.8442 9.89616 3.23409C10.9529 2.62398 12.2066 2.6515 13.4617 3.05754C14.7169 3.46362 16.0612 4.27241 17.4142 5.372C17.938 5.79775 18.4682 6.27122 19.0003 6.78858C19.5324 6.27122 20.0626 5.79775 20.5865 5.372C21.9394 4.27241 23.2837 3.46362 24.5389 3.05754C25.7941 2.6515 27.0477 2.62398 28.1045 3.23409C29.1612 3.8442 29.7642 4.94368 30.0402 6.23367C30.3161 7.52376 30.2878 9.09238 30.012 10.8139ZM13.9269 16.0738C14.4944 15.0908 15.0845 14.153 15.6886 13.2669C16.758 13.1868 17.8653 13.1446 19.0003 13.1446C20.1354 13.1446 21.2426 13.1868 22.3121 13.2669C22.9161 14.153 23.5063 15.0908 24.0738 16.0738C24.6413 17.0568 25.1584 18.0368 25.6238 19.003C25.1584 19.9692 24.6413 20.9492 24.0738 21.9321C23.5063 22.9151 22.9161 23.8529 22.3121 24.7391C21.2426 24.8191 20.1354 24.8613 19.0003 24.8613C17.8653 24.8613 16.758 24.8191 15.6886 24.7391C15.0845 23.8529 14.4944 22.9151 13.9269 21.9321C13.3593 20.9492 12.8422 19.9692 12.3768 19.003C12.8422 18.0368 13.3593 17.0568 13.9269 16.0738ZM12.5557 15.2821C12.9141 14.6612 13.2821 14.0564 13.6576 13.4694C12.5067 13.6138 11.4127 13.8033 10.39 14.0318C10.7035 15.0317 11.0864 16.0739 11.5368 17.1428C11.8574 16.5241 12.1972 15.903 12.5557 15.2821ZM19.0003 11.5613C18.2834 11.5613 17.5756 11.5776 16.8795 11.6093C17.58 10.6848 18.2911 9.83206 19.0003 9.06065C19.7095 9.83206 20.4206 10.6848 21.1211 11.6093C20.425 11.5776 19.7173 11.5613 19.0003 11.5613ZM14.8136 11.7513C15.8147 10.3364 16.8531 9.05065 17.8957 7.92292C17.3965 7.43763 16.9016 6.99576 16.4156 6.6007C15.1504 5.57247 13.9785 4.88884 12.9743 4.564C11.9701 4.23913 11.2214 4.29724 10.6878 4.6053C10.1542 4.91336 9.72956 5.53272 9.5088 6.56484C9.28806 7.59685 9.29412 8.95361 9.55202 10.5634C9.65111 11.1819 9.78635 11.8314 9.95703 12.5063C11.455 12.1673 13.0876 11.9108 14.8136 11.7513ZM23.1871 11.7513C22.1859 10.3364 21.1476 9.05065 20.105 7.92292C20.6041 7.43763 21.099 6.99576 21.5851 6.6007C22.8502 5.57247 24.0222 4.88884 25.0263 4.564C26.0305 4.23913 26.7792 4.29724 27.3128 4.6053C27.8464 4.91336 28.2711 5.53272 28.4918 6.56484C28.7126 7.59685 28.7065 8.95361 28.4486 10.5634C28.3495 11.1819 28.2143 11.8314 28.0436 12.5063C26.5457 12.1673 24.913 11.9108 23.1871 11.7513ZM24.343 13.4694C25.4939 13.6138 26.588 13.8033 27.6106 14.0318C27.2972 15.0317 26.9142 16.0739 26.4639 17.1428C26.1433 16.5241 25.8035 15.903 25.445 15.2821C25.0865 14.6612 24.7186 14.0564 24.343 13.4694ZM29.1482 14.4196C28.6929 15.8864 28.0986 17.4285 27.3739 19.003C28.0986 20.5775 28.6929 22.1196 29.1482 23.5864C29.8181 23.3967 30.4482 23.1891 31.0334 22.9656C32.5564 22.3841 33.7344 21.711 34.5178 21.0038C35.3013 20.2966 35.6253 19.6191 35.6253 19.003C35.6253 18.3868 35.3013 17.7094 34.5178 17.0021C33.7344 16.295 32.5564 15.6218 31.0334 15.0403C30.4482 14.8169 29.8181 14.6092 29.1482 14.4196ZM25.445 22.7238C25.8035 22.1029 26.1433 21.4818 26.4639 20.8631C26.9142 21.932 27.2972 22.9743 27.6106 23.9741C26.588 24.2026 25.4939 24.3921 24.343 24.5365C24.7186 23.9495 25.0865 23.3447 25.445 22.7238ZM23.1871 26.2547C24.913 26.0951 26.5457 25.8387 28.0436 25.4996C28.2143 26.1746 28.3495 26.8241 28.4486 27.4426C28.7065 29.0523 28.7126 30.4091 28.4918 31.4411C28.2711 32.4732 27.8464 33.0926 27.3128 33.4006C26.7792 33.7087 26.0305 33.7668 25.0263 33.4419C24.0222 33.1171 22.8502 32.4335 21.5851 31.4052C21.099 31.0102 20.6041 30.5683 20.105 30.083C21.1476 28.9553 22.1859 27.6696 23.1871 26.2547ZM21.1211 26.3967C20.4206 27.3212 19.7095 28.1739 19.0003 28.9453C18.2911 28.1739 17.58 27.3212 16.8795 26.3967C17.5756 26.4284 18.2834 26.4446 19.0003 26.4446C19.7173 26.4446 20.425 26.4284 21.1211 26.3967ZM12.5557 22.7238C12.9141 23.3447 13.2821 23.9495 13.6576 24.5365C12.5067 24.3921 11.4127 24.2026 10.39 23.9741C10.7035 22.9743 11.0864 21.932 11.5368 20.8631C11.8574 21.4818 12.1972 22.1029 12.5557 22.7238ZM14.8136 26.2547C13.0876 26.0951 11.455 25.8387 9.95703 25.4996C9.78635 26.1746 9.65111 26.8241 9.55202 27.4426C9.29412 29.0523 9.28806 30.4091 9.5088 31.4411C9.72956 32.4732 10.1542 33.0926 10.6878 33.4006C11.2214 33.7087 11.9701 33.7668 12.9743 33.4419C13.9785 33.1171 15.1504 32.4335 16.4156 31.4052C16.9016 31.0102 17.3965 30.5683 17.8957 30.083C16.8531 28.9553 15.8147 27.6696 14.8136 26.2547ZM6.96727 22.9656C7.55244 23.1891 8.18255 23.3967 8.8524 23.5864C9.30775 22.1196 9.90201 20.5775 10.6268 19.003C9.90201 17.4285 9.30775 15.8864 8.8524 14.4196C8.18255 14.6092 7.55244 14.8169 6.96727 15.0403C5.44422 15.6218 4.2662 16.295 3.48283 17.0021C2.69936 17.7094 2.37533 18.3868 2.37533 19.003C2.37533 19.6191 2.69936 20.2966 3.48283 21.0038C4.2662 21.711 5.44422 22.3841 6.96727 22.9656Z" fill="#1C1D20"/>
</svg>
