<svg width="38" height="38" viewBox="0 0 38 38" fill="none" xmlns="http://www.w3.org/2000/svg">
<path d="M15.6618 27.0216C15.9201 26.2153 15.9321 25.3504 15.6962 24.5373L15.5454 24.6204C14.46 25.1554 13.468 25.862 12.6075 26.7128C11.4877 27.8967 11.1754 29.3823 11.8 29.7445C12.3783 30.0806 13.7285 29.6816 14.694 28.6282C15.0036 28.2946 15.2624 27.9173 15.4623 27.5084C15.5011 27.4324 15.5371 27.3533 15.5703 27.2709C15.6036 27.1886 15.6341 27.1055 15.6618 27.0216Z" fill="#1C1D20"/>
<path fill-rule="evenodd" clip-rule="evenodd" d="M28.2364 5.17682C25.5024 3.35004 22.2881 2.375 19 2.375C14.5908 2.375 10.3621 4.12656 7.24435 7.24435C4.12656 10.3621 2.375 14.5908 2.375 19C2.375 22.2881 3.35004 25.5024 5.17682 28.2364C7.0036 30.9703 9.60007 33.1012 12.6379 34.3595C15.6757 35.6178 19.0184 35.947 22.2434 35.3056C25.4683 34.6641 28.4306 33.0807 30.7557 30.7557C33.0807 28.4306 34.6641 25.4683 35.3056 22.2434C35.947 19.0184 35.6178 15.6757 34.3595 12.6379C33.1012 9.60007 30.9703 7.0036 28.2364 5.17682ZM19.1459 7.21287C23.7795 5.57174 28.6756 6.53837 29.4285 9.49049C30.1683 12.3939 27.6484 15.8674 24.4172 17.1131C22.4524 17.9696 20.2678 18.1857 18.1733 17.7306C17.7679 17.6192 17.3888 17.4281 17.0583 17.1683C16.7277 16.9085 16.4524 16.5853 16.2484 16.2177L16.2452 16.2094C16.1831 16.047 16.0815 15.7815 16.2484 15.6892C16.3529 15.6322 16.3945 15.6453 16.6747 15.9541C17.1355 16.3396 17.6772 16.6164 18.2596 16.764C18.842 16.9116 19.4501 16.9262 20.0389 16.8067C25.366 16.2094 28.5747 12.0709 27.5605 9.84318C26.8504 8.28399 22.744 7.57981 17.614 10.1365C11.3571 13.2572 11.0175 15.8294 10.964 16.8067C10.863 18.6649 12.4876 19.9145 14.1192 21.1694C14.8472 21.7293 15.5765 22.2903 16.1546 22.9069C16.1985 22.9544 16.2413 23.0019 16.2828 23.0494C17.1238 22.7884 18.0021 22.668 18.8823 22.6931C21.9128 22.6421 23.624 24.6442 23.5539 26.4254C23.5252 26.884 23.3583 27.3232 23.0751 27.685C22.7919 28.0469 22.4057 28.3145 21.9674 28.4525C21.7928 28.4822 21.699 28.4869 21.6741 28.3504C21.6563 28.2554 21.7192 28.2126 21.9235 28.0856C22.1624 27.947 22.3687 27.7586 22.5283 27.5332C22.6879 27.3078 22.7971 27.0507 22.8485 26.7793C22.9578 26.0169 22.3854 24.1965 19.4689 23.8557C18.6191 23.741 17.7552 23.7906 16.9241 24.0017C17.2322 24.8358 17.342 25.7301 17.2447 26.6139C17.1475 27.4977 16.8458 28.3467 16.3636 29.0937C15.7801 30.0158 14.9227 30.732 13.9115 31.142C12.9003 31.552 11.7862 31.6351 10.7253 31.3797C10.0188 31.1837 8.95359 29.7255 9.87272 27.6925C10.7467 25.7687 14.4707 23.8818 14.979 23.6312V23.6229C14.5465 23.2506 13.9589 22.8458 13.3117 22.4C11.3767 21.0671 8.90927 19.3674 8.46434 17.0715C8.2969 16.2034 8.70422 14.1253 11.2562 11.7384C13.5629 9.72585 16.244 8.18799 19.1459 7.21287Z" fill="#1C1D20"/>
</svg>
