<svg width="35" height="39" viewBox="0 0 35 39" fill="none" xmlns="http://www.w3.org/2000/svg">
<path d="M17.6012 0.297119L0.808378 9.79712V28.7971L17.6012 38.2971L34.394 28.7971V9.79712L17.6012 0.297119Z" fill="white"/>
<path d="M3.80724 28.1415L17.0471 35.6307V29.7977L8.79791 25.2599L3.80724 28.1415ZM2.90157 27.3214V11.659L7.74657 14.4552V24.522L2.90157 27.3214ZM31.4491 28.1415L18.2092 35.6307V29.7977L26.4584 25.2599L31.4491 28.1415V28.1415ZM32.3547 27.3214V11.659L27.5097 14.4552V24.522L32.3547 27.3214V27.3214ZM31.7879 10.6457L18.2092 2.96338V8.60321L26.9081 13.388L26.9746 13.426L31.7879 10.6457V10.6457ZM3.4684 10.6457L17.0471 2.96338V8.60321L8.34824 13.388L8.28174 13.426L3.4684 10.6457V10.6457Z" fill="#1C1D20"/>
<path d="M18.2092 28.471L26.3475 23.9965V15.1299L18.2092 19.8292V28.471ZM17.047 28.471L8.90871 23.9965V15.1299L17.047 19.8292V28.471ZM25.7965 14.1039L17.6265 9.61035L9.45654 14.1039L17.6265 18.8222L25.7965 14.1039" fill="#1C1D20"/>
</svg>
