<svg width="36" height="36" viewBox="0 0 36 36" fill="none" xmlns="http://www.w3.org/2000/svg">
<g clip-path="url(#clip0_456_217)">
<path d="M36 18C36 8.064 27.936 0 18 0C8.064 0 0 8.064 0 18C0 27.936 8.064 36 18 36C27.936 36 36 27.936 36 18ZM18 1.818C26.946 1.818 34.182 9.054 34.182 18C34.182 26.946 26.946 34.182 18 34.182C9.054 34.182 1.818 26.946 1.818 18C1.818 9.054 9.054 1.818 18 1.818ZM14.418 26.676L8.928 11.898C9.81 11.844 10.818 11.754 10.818 11.754C11.592 11.664 11.502 9.936 10.71 9.972C10.71 9.972 8.388 10.152 6.876 10.152C6.606 10.152 6.282 10.152 5.94 10.134C8.532 6.228 12.96 3.654 18 3.654C21.762 3.654 25.182 5.076 27.738 7.416C26.658 7.272 25.128 8.046 25.128 9.972C25.128 11.16 25.812 12.168 26.55 13.356C27.108 14.328 27.45 15.552 27.45 17.334C27.45 19.746 25.164 25.398 25.164 25.398L20.286 11.898C21.15 11.844 21.636 11.61 21.636 11.61C22.41 11.52 22.32 9.63 21.546 9.666C21.546 9.666 19.206 9.864 17.694 9.864C16.29 9.864 13.896 9.666 13.896 9.666C13.122 9.63 13.032 11.574 13.806 11.61L15.318 11.754L17.334 17.226L14.418 26.676ZM25.254 30.546L29.952 18C29.952 18 31.158 14.958 30.654 11.142C31.788 13.194 32.346 15.498 32.346 18C32.346 23.328 29.538 28.044 25.254 30.546ZM4.824 12.186L11.7 31.05C6.894 28.71 3.654 23.706 3.654 18C3.654 15.912 4.014 13.986 4.824 12.186ZM18.234 20.34L22.356 31.59C21.006 32.076 19.53 32.346 18 32.346C16.704 32.346 15.462 32.148 14.292 31.806L18.234 20.34Z" fill="#1C1D20"/>
</g>
<defs>
<clipPath id="clip0_456_217">
<rect width="36" height="36" fill="white"/>
</clipPath>
</defs>
</svg>
